<svg width="18" height="18" viewBox="0 0 18 18" fill="none" xmlns="http://www.w3.org/2000/svg">
<g opacity="0.7">
<path fill-rule="evenodd" clip-rule="evenodd" d="M11.4697 1.71967C11.7626 1.42678 12.2374 1.42678 12.5303 1.71967L15.5303 4.71967C15.671 4.86032 15.75 5.05109 15.75 5.25C15.75 5.44891 15.671 5.63968 15.5303 5.78033L12.5303 8.78033C12.2374 9.07322 11.7626 9.07322 11.4697 8.78033C11.1768 8.48744 11.1768 8.01256 11.4697 7.71967L13.9393 5.25L11.4697 2.78033C11.1768 2.48744 11.1768 2.01256 11.4697 1.71967Z" fill="white"/>
<path fill-rule="evenodd" clip-rule="evenodd" d="M6.75 5.24999C6.75 4.83577 7.08579 4.49999 7.5 4.49999H15C15.4142 4.49999 15.75 4.83579 15.75 5.25C15.75 5.66421 15.4142 5.99999 15 5.99999H7.5C7.08579 5.99999 6.75 5.6642 6.75 5.24999Z" fill="white"/>
<path fill-rule="evenodd" clip-rule="evenodd" d="M6.53033 9.21966C6.82322 9.51255 6.82322 9.98742 6.53033 10.2803L4.06066 12.75L6.53033 15.2197C6.82322 15.5125 6.82322 15.9874 6.53033 16.2803C6.23744 16.5732 5.76256 16.5732 5.46967 16.2803L2.46967 13.2803C2.32902 13.1397 2.25 12.9489 2.25 12.75C2.25 12.5511 2.32902 12.3603 2.46967 12.2197L5.46967 9.21966C5.76256 8.92676 6.23744 8.92676 6.53033 9.21966Z" fill="white"/>
<path fill-rule="evenodd" clip-rule="evenodd" d="M2.25 12.75C2.25 12.3358 2.58579 12 3 12H9.75C10.1642 12 10.5 12.3358 10.5 12.75C10.5 13.1642 10.1642 13.5 9.75 13.5H3C2.58579 13.5 2.25 13.1642 2.25 12.75Z" fill="white"/>
</g>
</svg>
