<svg width="14" height="14" viewBox="0 0 14 14" fill="none" xmlns="http://www.w3.org/2000/svg">
<path fill-rule="evenodd" clip-rule="evenodd" d="M7.22375 2.90871C6.07568 2.86216 4.95511 3.18863 4.07072 3.81605C3.18757 4.4426 2.60643 5.32072 2.41286 6.27703C2.21965 7.23156 2.42083 8.22078 2.99157 9.06489C3.09315 9.21512 3.11908 9.40405 3.06173 9.5761L2.62579 10.8839L4.37027 10.5127C4.49725 10.4857 4.62963 10.5018 4.74642 10.5585C5.74634 11.044 6.91694 11.1922 8.03685 10.9704C9.15663 10.7485 10.133 10.1755 10.793 9.37476C11.4512 8.5762 11.7523 7.60466 11.6578 6.63974C11.5632 5.67389 11.076 4.75643 10.2645 4.06428C9.45153 3.37084 8.3718 2.95526 7.22375 2.90871ZM1.71731 12.2492C1.77295 12.2523 1.82804 12.2474 1.88106 12.2351L4.42259 11.6944C5.61245 12.2234 6.96773 12.3715 8.26357 12.1148C9.62746 11.8446 10.8493 11.1407 11.6932 10.1168C12.5389 9.09082 12.9451 7.81444 12.8189 6.526C12.6928 5.2385 12.0462 4.05053 11.0216 3.17664C9.99857 2.30402 8.66493 1.79952 7.27101 1.743C5.87711 1.68648 4.5001 2.08099 3.39566 2.86452C2.28999 3.64894 1.52641 4.77576 1.26938 6.04558C1.03119 7.22234 1.24723 8.42908 1.86731 9.47001L1.19972 11.4728C1.18159 11.5241 1.17052 11.5783 1.16743 11.6339C1.16337 11.7055 1.17271 11.7762 1.19384 11.8427C1.2193 11.9235 1.2612 11.9954 1.31498 12.0554C1.36865 12.1156 1.43539 12.1653 1.51278 12.1996C1.57653 12.228 1.64571 12.2452 1.71731 12.2492Z" fill="white" fill-opacity="0.7"/>
</svg>
