<svg width="20"  viewBox="0 0 20 14" fill="none" xmlns="http://www.w3.org/2000/svg"><path d="M18.502 3.447H1.498C.67 3.447 0 4.117 0 4.945v10.108c0 .827.67 1.497 1.498 1.497h17.004c.827 0 1.498-.67 1.498-1.497V4.945c0-.827-.67-1.498-1.498-1.498Z" fill="#F5F5F5"/><path d="M.082 4.455h19.835a1.498 1.498 0 0 0-1.415-1.008H1.497c-.655 0-1.212.421-1.415 1.008ZM20 7.478H0v1.008h20V7.478ZM20 5.461H0V6.47h20V5.461ZM0 10.16c0 .19.154.344.345.344H20V9.496H0v.663ZM20 13.528H0v1.008h20v-1.008ZM19.917 15.542H.082c.203.587.76 1.008 1.415 1.008h17.005c.655 0 1.212-.421 1.415-1.008ZM20 11.511H0v1.008h20v-1.008Z" fill="#FF4B55"/><path d="M.345 10.505h8.62c.191 0 .345-.154.345-.344V3.795a.345.345 0 0 0-.344-.345H1.498C.67 3.45 0 4.12 0 4.948v5.213c0 .19.154.344.345.344Z" fill="#41479B"/><path d="m.968 4.239.077.229.24.002c.032 0 .045.04.02.058l-.194.144.073.23a.033.033 0 0 1-.05.036l-.197-.14-.196.14a.033.033 0 0 1-.05-.036l.073-.23-.194-.144a.033.033 0 0 1 .019-.058l.241-.002.077-.229c.01-.03.051-.03.061 0ZM.968 5.435l.077.229.24.002c.032 0 .045.04.02.058l-.194.144.073.23a.033.033 0 0 1-.05.036l-.197-.14-.196.14a.033.033 0 0 1-.05-.036l.073-.23-.194-.144a.033.033 0 0 1 .019-.058l.241-.002.077-.23c.01-.029.051-.029.061 0ZM.968 6.634l.077.23.24.001c.032 0 .045.04.02.059l-.194.143.073.23a.033.033 0 0 1-.05.036l-.197-.14-.196.14a.033.033 0 0 1-.05-.036l.073-.23-.194-.143a.033.033 0 0 1 .019-.059l.241-.002.077-.229c.01-.03.051-.03.061 0ZM.968 7.83l.077.228.24.002c.032 0 .045.04.02.059l-.194.143.073.23a.033.033 0 0 1-.05.036l-.197-.14-.196.14a.033.033 0 0 1-.05-.036l.073-.23L.57 8.12a.033.033 0 0 1 .019-.059l.241-.002.077-.229c.01-.03.051-.03.061 0ZM.968 9.03l.077.228.24.002c.032 0 .045.04.02.059l-.194.143.073.23a.033.033 0 0 1-.05.036l-.197-.14-.196.14a.033.033 0 0 1-.05-.036l.073-.23L.57 9.32a.033.033 0 0 1 .019-.059l.241-.002.077-.229c.01-.03.051-.03.061 0ZM1.897 4.824l.077.23.241.001c.031 0 .044.04.02.059l-.195.143.073.23a.033.033 0 0 1-.05.037l-.196-.14-.197.14a.033.033 0 0 1-.05-.037l.073-.23-.194-.143a.033.033 0 0 1 .02-.059l.24-.002.077-.229c.01-.03.052-.03.061 0ZM1.897 6.024l.077.229.241.001c.031 0 .044.04.02.06l-.195.142.073.23a.033.033 0 0 1-.05.037l-.196-.14-.197.14a.033.033 0 0 1-.05-.036l.073-.23-.194-.144a.033.033 0 0 1 .02-.059l.24-.001.077-.23c.01-.029.052-.029.061 0ZM1.897 7.219l.077.229.241.002c.031 0 .044.04.02.058l-.195.144.073.23a.033.033 0 0 1-.05.036l-.196-.14-.197.14a.033.033 0 0 1-.05-.036l.073-.23-.194-.144a.033.033 0 0 1 .02-.058l.24-.002.077-.229c.01-.03.052-.03.061 0ZM1.897 8.419l.077.229.241.001c.031 0 .044.04.02.06l-.195.142.073.23a.033.033 0 0 1-.05.037l-.196-.14-.197.14a.033.033 0 0 1-.05-.037l.073-.23-.194-.143a.033.033 0 0 1 .02-.059l.24-.001.077-.23c.01-.029.052-.029.061 0ZM2.827 4.239l.076.229.242.002c.031 0 .044.04.019.058l-.194.144.072.23a.033.033 0 0 1-.05.036l-.196-.14-.196.14a.033.033 0 0 1-.05-.036l.073-.23-.194-.144a.033.033 0 0 1 .019-.058l.241-.002.076-.23c.01-.029.052-.029.062 0ZM2.827 5.435l.076.229.242.002c.031 0 .044.04.019.058l-.194.144.072.23a.033.033 0 0 1-.05.036l-.196-.14-.196.14a.033.033 0 0 1-.05-.036l.073-.23-.194-.144a.033.033 0 0 1 .019-.058l.241-.002.076-.23c.01-.029.052-.029.062 0ZM2.827 6.634l.076.229.242.002c.031 0 .044.04.019.058l-.194.144.072.23a.033.033 0 0 1-.05.036l-.196-.14-.196.14a.033.033 0 0 1-.05-.036l.073-.23-.194-.144a.033.033 0 0 1 .019-.058l.241-.002.076-.229c.01-.03.052-.03.062 0ZM2.827 7.83l.076.228.242.002c.031 0 .044.04.019.059l-.194.143.072.23a.033.033 0 0 1-.05.036l-.196-.14-.196.14a.033.033 0 0 1-.05-.036l.073-.23-.194-.143a.033.033 0 0 1 .019-.059l.241-.002.076-.229c.01-.03.052-.03.062 0ZM2.827 9.029l.076.229.242.002c.031 0 .044.04.019.058l-.194.144.072.23a.033.033 0 0 1-.05.036l-.196-.14-.196.14a.033.033 0 0 1-.05-.036l.073-.23-.194-.144a.033.033 0 0 1 .019-.058l.241-.002.076-.229c.01-.03.052-.03.062 0ZM3.757 4.824l.076.23.241.001c.032 0 .045.04.02.059l-.195.143.073.23a.033.033 0 0 1-.05.037l-.196-.14-.196.14a.033.033 0 0 1-.05-.037l.073-.23-.195-.143a.033.033 0 0 1 .02-.059l.24-.002.077-.229c.01-.03.052-.03.062 0ZM3.757 6.024l.076.229.241.001c.032 0 .045.04.02.06l-.195.142.073.23a.033.033 0 0 1-.05.037l-.196-.14-.196.14a.033.033 0 0 1-.05-.036l.073-.23-.195-.144a.033.033 0 0 1 .02-.059l.24-.001.077-.23c.01-.029.052-.029.062 0ZM3.757 7.219l.076.229.241.002c.032 0 .045.04.02.058l-.195.144.073.23a.033.033 0 0 1-.05.036l-.196-.14-.196.14a.033.033 0 0 1-.05-.036l.073-.23-.195-.144a.033.033 0 0 1 .02-.058l.24-.002.077-.229c.01-.03.052-.03.062 0ZM3.757 8.419l.076.229.241.001c.032 0 .045.04.02.06l-.195.142.073.23a.033.033 0 0 1-.05.037l-.196-.14-.196.14a.033.033 0 0 1-.05-.037l.073-.23-.195-.143a.033.033 0 0 1 .02-.059l.24-.001.077-.23c.01-.029.052-.029.062 0ZM4.686 4.239l.076.229.242.002c.03 0 .044.04.019.058l-.194.144.072.23a.033.033 0 0 1-.05.036l-.196-.14-.196.14a.033.033 0 0 1-.05-.036l.073-.23-.194-.144a.033.033 0 0 1 .019-.058l.241-.002.076-.229c.01-.03.052-.03.062 0ZM4.686 5.435l.076.229.242.002c.03 0 .044.04.019.058l-.194.144.072.23a.033.033 0 0 1-.05.036l-.196-.14-.196.14a.033.033 0 0 1-.05-.036l.073-.23-.194-.144a.033.033 0 0 1 .019-.058l.241-.002.076-.23c.01-.029.052-.029.062 0ZM4.686 6.634l.076.229.242.002c.03 0 .044.04.019.058l-.194.144.072.23a.033.033 0 0 1-.05.036l-.196-.14-.196.14a.033.033 0 0 1-.05-.036l.073-.23-.194-.144a.033.033 0 0 1 .019-.058l.241-.002.076-.229c.01-.03.052-.03.062 0ZM4.686 7.83l.076.228.242.002c.03 0 .044.04.019.059l-.194.143.072.23a.033.033 0 0 1-.05.036l-.196-.14-.196.14a.033.033 0 0 1-.05-.036l.073-.23-.194-.143a.033.033 0 0 1 .019-.059l.241-.002.076-.229c.01-.03.052-.03.062 0ZM4.686 9.029l.076.229.242.002c.03 0 .044.04.019.058l-.194.144.072.23a.033.033 0 0 1-.05.036l-.196-.14-.196.14a.033.033 0 0 1-.05-.036l.073-.23-.194-.144a.033.033 0 0 1 .019-.058l.241-.002.076-.229c.01-.03.052-.03.062 0ZM5.616 4.824l.076.23.241.001c.032 0 .044.04.02.059l-.195.143.073.23a.033.033 0 0 1-.05.037l-.196-.14-.196.14a.033.033 0 0 1-.05-.037l.072-.23-.194-.143a.033.033 0 0 1 .02-.059l.24-.002.077-.229c.01-.03.052-.03.062 0ZM5.616 6.024l.076.229.241.001c.032 0 .044.04.02.06l-.195.142.073.23a.033.033 0 0 1-.05.037l-.196-.14-.196.14a.033.033 0 0 1-.05-.036l.072-.23-.194-.144a.033.033 0 0 1 .02-.059l.24-.001.077-.23c.01-.029.052-.029.062 0ZM5.616 7.219l.076.229.241.002c.032 0 .044.04.02.058l-.195.144.073.23a.033.033 0 0 1-.05.036l-.196-.14-.196.14a.033.033 0 0 1-.05-.036l.072-.23-.194-.144a.033.033 0 0 1 .02-.058l.24-.002.077-.229c.01-.03.052-.03.062 0ZM5.616 8.419l.076.229.241.001c.032 0 .044.04.02.06l-.195.142.073.23a.033.033 0 0 1-.05.037l-.196-.14-.196.14a.033.033 0 0 1-.05-.037l.072-.23-.194-.143a.033.033 0 0 1 .02-.059l.24-.001.077-.23c.01-.029.052-.029.062 0ZM6.545 4.239l.076.229.241.002c.032 0 .045.04.02.058l-.195.144.073.23a.033.033 0 0 1-.05.036l-.196-.14-.196.14a.033.033 0 0 1-.05-.036l.073-.23-.194-.144a.033.033 0 0 1 .019-.058l.24-.002.077-.23c.01-.029.052-.029.062 0ZM6.545 5.435l.076.229.241.002c.032 0 .045.04.02.058l-.195.144.073.23a.033.033 0 0 1-.05.036l-.196-.14-.196.14a.033.033 0 0 1-.05-.036l.073-.23-.194-.144a.033.033 0 0 1 .019-.058l.24-.002.077-.23c.01-.029.052-.029.062 0ZM6.545 6.634l.076.229.241.002c.032 0 .045.04.02.058l-.195.144.073.23a.033.033 0 0 1-.05.036l-.196-.14-.196.14a.033.033 0 0 1-.05-.036l.073-.23-.194-.144a.033.033 0 0 1 .019-.058l.24-.002.077-.229c.01-.03.052-.03.062 0ZM6.545 7.83l.076.228.241.002c.032 0 .045.04.02.059l-.195.143.073.23a.033.033 0 0 1-.05.036l-.196-.14-.196.14a.033.033 0 0 1-.05-.036l.073-.23-.194-.143a.033.033 0 0 1 .019-.059l.24-.002.077-.229c.01-.03.052-.03.062 0ZM6.545 9.029l.076.229.241.002c.032 0 .045.04.02.058l-.195.144.073.23a.033.033 0 0 1-.05.036l-.196-.14-.196.14a.033.033 0 0 1-.05-.036l.073-.23-.194-.144a.033.033 0 0 1 .019-.058l.24-.002.077-.229c.01-.03.052-.03.062 0ZM7.475 4.824l.076.23.241.001c.031 0 .044.04.02.059l-.195.143.073.23a.033.033 0 0 1-.05.037l-.196-.14-.197.14a.033.033 0 0 1-.05-.037l.073-.23-.194-.143a.033.033 0 0 1 .02-.059l.24-.002.077-.229c.01-.03.052-.03.062 0ZM7.475 6.024l.076.229.241.001c.031 0 .044.04.02.06l-.195.142.073.23a.033.033 0 0 1-.05.037l-.196-.14-.197.14a.033.033 0 0 1-.05-.036l.073-.23-.194-.144a.033.033 0 0 1 .02-.059l.24-.001.077-.23c.01-.029.052-.029.062 0ZM7.475 7.219l.076.229.241.002c.031 0 .044.04.02.058l-.195.144.073.23a.033.033 0 0 1-.05.036l-.196-.14-.197.14a.033.033 0 0 1-.05-.036l.073-.23-.194-.144a.033.033 0 0 1 .02-.058l.24-.002.077-.229c.01-.03.052-.03.062 0ZM7.475 8.419l.076.229.241.001c.031 0 .044.04.02.06l-.195.142.073.23a.033.033 0 0 1-.05.037l-.196-.14-.197.14a.033.033 0 0 1-.05-.037l.073-.23-.194-.143a.033.033 0 0 1 .02-.059l.24-.001.077-.23c.01-.029.052-.029.062 0ZM8.404 4.239l.076.229.241.002c.032 0 .045.04.02.058l-.195.144.073.23a.033.033 0 0 1-.05.036l-.196-.14-.196.14a.033.033 0 0 1-.05-.036l.073-.23-.195-.144a.033.033 0 0 1 .02-.058l.24-.002.077-.23c.01-.029.052-.029.062 0ZM8.404 5.435l.076.229.241.002c.032 0 .045.04.02.058l-.195.144.073.23a.033.033 0 0 1-.05.036l-.196-.14-.196.14a.033.033 0 0 1-.05-.036l.073-.23-.195-.144a.033.033 0 0 1 .02-.058l.24-.002.077-.23c.01-.029.052-.029.062 0ZM8.404 6.634l.076.229.241.002c.032 0 .045.04.02.058l-.195.144.073.23a.033.033 0 0 1-.05.036l-.196-.14-.196.14a.033.033 0 0 1-.05-.036l.073-.23-.195-.144a.033.033 0 0 1 .02-.058l.24-.002.077-.229c.01-.03.052-.03.062 0ZM8.404 7.83l.076.228.241.002c.032 0 .045.04.02.059l-.195.143.073.23a.033.033 0 0 1-.05.036l-.196-.14-.196.14a.033.033 0 0 1-.05-.036l.073-.23-.195-.143a.033.033 0 0 1 .02-.059l.24-.002.077-.229c.01-.03.052-.03.062 0ZM8.404 9.029l.076.229.241.002c.032 0 .045.04.02.058l-.195.144.073.23a.033.033 0 0 1-.05.036l-.196-.14-.196.14a.033.033 0 0 1-.05-.036l.073-.23-.195-.144a.033.033 0 0 1 .02-.058l.24-.002.077-.229c.01-.03.052-.03.062 0Z" fill="#F5F5F5"/></svg>