<svg width="20" height="20" viewBox="0 0 20 20" fill="none" xmlns="http://www.w3.org/2000/svg">
<path d="M18.5021 3.44702H1.49785C0.670586 3.44702 0 4.11761 0 4.94487V15.0526C0 15.8799 0.670586 16.5505 1.49785 16.5505H18.5021C19.3294 16.5505 20 15.8799 20 15.0526V4.94487C20 4.11761 19.3294 3.44702 18.5021 3.44702Z" fill="#F5F5F5"/>
<path d="M0.0820312 4.45499H19.9172C19.7143 3.86839 19.1574 3.44702 18.5018 3.44702H1.4975C0.841875 3.44702 0.285039 3.86839 0.0820312 4.45499Z" fill="#FF4B55"/>
<path d="M20 7.47803H0V8.48596H20V7.47803Z" fill="#FF4B55"/>
<path d="M20 5.46143H0V6.46936H20V5.46143Z" fill="#FF4B55"/>
<path d="M0 10.1595C0 10.3499 0.154414 10.5043 0.344844 10.5043H20V9.49634H0V10.1595Z" fill="#FF4B55"/>
<path d="M20 13.5278H0V14.5358H20V13.5278Z" fill="#FF4B55"/>
<path d="M19.9173 15.542H0.0820312C0.285039 16.1286 0.841914 16.55 1.4975 16.55H18.5018C19.1574 16.55 19.7143 16.1286 19.9173 15.542Z" fill="#FF4B55"/>
<path d="M20 11.5112H0V12.5192H20V11.5112Z" fill="#FF4B55"/>
<path d="M0.344844 10.5054H8.96555C9.15598 10.5054 9.31039 10.351 9.31039 10.1606V3.79455C9.31039 3.60408 9.15598 3.44971 8.96555 3.44971H1.49785C0.670586 3.44975 0 4.12033 0 4.9476V10.1606C0 10.3511 0.154414 10.5054 0.344844 10.5054Z" fill="#41479B"/>
<path d="M0.968216 4.23903L1.04454 4.46793L1.28583 4.46977C1.31708 4.47004 1.33001 4.50989 1.3049 4.52844L1.11079 4.67176L1.18361 4.9018C1.19306 4.93157 1.15911 4.95625 1.13368 4.93805L0.937396 4.79778L0.741107 4.93809C0.715678 4.95629 0.681811 4.93161 0.691186 4.90184L0.763998 4.6718L0.569897 4.52848C0.54478 4.50989 0.557709 4.47004 0.588959 4.46981L0.830248 4.46797L0.906576 4.23907C0.916419 4.20938 0.958294 4.20938 0.968216 4.23903Z" fill="#F5F5F5"/>
<path d="M0.968216 5.4348L1.04454 5.66371L1.28583 5.66554C1.31708 5.66582 1.33001 5.70562 1.3049 5.72422L1.11079 5.86758L1.18361 6.09762C1.19306 6.12739 1.15911 6.15207 1.13368 6.13387L0.937396 5.99359L0.741107 6.13391C0.715678 6.15207 0.681811 6.12742 0.691186 6.09766L0.763998 5.86762L0.569897 5.72426C0.54478 5.70566 0.557709 5.66586 0.588959 5.66558L0.830248 5.66375L0.906576 5.43484C0.916419 5.40519 0.958294 5.40519 0.968216 5.4348Z" fill="#F5F5F5"/>
<path d="M0.968216 6.63429L1.04454 6.8632L1.28583 6.86504C1.31708 6.86531 1.33001 6.90511 1.3049 6.92371L1.11079 7.06707L1.18361 7.29711C1.19306 7.32687 1.15911 7.35156 1.13368 7.33336L0.937396 7.19308L0.741107 7.3334C0.715678 7.35156 0.681811 7.32695 0.691186 7.29715L0.763998 7.06711L0.569897 6.92375C0.54478 6.90515 0.557709 6.86535 0.588959 6.86507L0.830248 6.86324L0.906576 6.63433C0.916419 6.60464 0.958294 6.60464 0.968216 6.63429Z" fill="#F5F5F5"/>
<path d="M0.968216 7.82936L1.04454 8.05826L1.28583 8.0601C1.31708 8.06037 1.33001 8.10022 1.3049 8.11877L1.11079 8.26213L1.18361 8.49217C1.19306 8.52193 1.15911 8.54662 1.13368 8.52842L0.937396 8.38814L0.741107 8.52845C0.715678 8.54662 0.681811 8.52197 0.691186 8.4922L0.763998 8.26217L0.569897 8.11881C0.54478 8.10029 0.557709 8.06041 0.588959 8.06014L0.830248 8.0583L0.906576 7.8294C0.916419 7.79971 0.958294 7.79971 0.968216 7.82936Z" fill="#F5F5F5"/>
<path d="M0.968216 9.02928L1.04454 9.25819L1.28583 9.26002C1.31708 9.2603 1.33001 9.3001 1.3049 9.3187L1.11079 9.46206L1.18361 9.69209C1.19306 9.72186 1.15911 9.74655 1.13368 9.72834L0.937396 9.58807L0.741107 9.72838C0.715678 9.74655 0.681811 9.7219 0.691186 9.69213L0.763998 9.46209L0.569897 9.31874C0.54478 9.30014 0.557709 9.26034 0.588959 9.26006L0.830248 9.25823L0.906576 9.02932C0.916419 8.99967 0.958294 8.99967 0.968216 9.02928Z" fill="#F5F5F5"/>
<path d="M1.89742 4.82445L1.97374 5.05336L2.21503 5.0552C2.24628 5.05547 2.25921 5.09531 2.23409 5.11387L2.03999 5.25723L2.11281 5.48727C2.12226 5.51704 2.08831 5.54172 2.06288 5.52352L1.8666 5.38321L1.67031 5.52352C1.64488 5.54169 1.61101 5.51704 1.62038 5.48727L1.6932 5.25723L1.4991 5.11387C1.47398 5.09528 1.48691 5.05547 1.51816 5.0552L1.75945 5.05336L1.83578 4.82445C1.84562 4.79484 1.88753 4.79484 1.89742 4.82445Z" fill="#F5F5F5"/>
<path d="M1.89742 6.0237L1.97374 6.25261L2.21503 6.25444C2.24628 6.25472 2.25921 6.29456 2.23409 6.31312L2.03999 6.45648L2.11281 6.68651C2.12226 6.71628 2.08831 6.74097 2.06288 6.72276L1.8666 6.58245L1.67031 6.72276C1.64488 6.74093 1.61101 6.71632 1.62038 6.68651L1.6932 6.45648L1.4991 6.31312C1.47398 6.2946 1.48691 6.25472 1.51816 6.25444L1.75945 6.25261L1.83578 6.0237C1.84562 5.99405 1.88753 5.99405 1.89742 6.0237Z" fill="#F5F5F5"/>
<path d="M1.89742 7.21901L1.97374 7.44792L2.21503 7.44976C2.24628 7.45003 2.25921 7.48984 2.23409 7.50843L2.03999 7.65179L2.11281 7.88183C2.12226 7.9116 2.08831 7.93628 2.06288 7.91808L1.8666 7.77777L1.67031 7.91808C1.64488 7.93624 1.61101 7.9116 1.62038 7.88183L1.6932 7.65179L1.4991 7.50843C1.47398 7.48984 1.48691 7.45003 1.51816 7.44976L1.75945 7.44792L1.83578 7.21901C1.84562 7.18937 1.88753 7.18937 1.89742 7.21901Z" fill="#F5F5F5"/>
<path d="M1.89742 8.41869L1.97374 8.6476L2.21503 8.64943C2.24628 8.64971 2.25921 8.68951 2.23409 8.7081L2.03999 8.85146L2.11281 9.0815C2.12226 9.11127 2.08831 9.13595 2.06288 9.11775L1.8666 8.97744L1.67031 9.11775C1.64488 9.13595 1.61101 9.11127 1.62038 9.0815L1.6932 8.85146L1.4991 8.7081C1.47398 8.68951 1.48691 8.64971 1.51816 8.64943L1.75945 8.6476L1.83578 8.41869C1.84562 8.38908 1.88753 8.38908 1.89742 8.41869Z" fill="#F5F5F5"/>
<path d="M2.8271 4.23879L2.90343 4.4677L3.14472 4.46953C3.17597 4.46981 3.1889 4.50965 3.16378 4.5282L2.96968 4.67152L3.04249 4.90156C3.05195 4.93133 3.018 4.95602 2.99257 4.93781L2.79628 4.7975L2.59999 4.93781C2.57456 4.95602 2.5407 4.93133 2.55007 4.90156L2.62288 4.67152L2.42878 4.5282C2.40367 4.50961 2.4166 4.46977 2.44785 4.46953L2.68913 4.4677L2.76546 4.23879C2.77531 4.20914 2.81722 4.20914 2.8271 4.23879Z" fill="#F5F5F5"/>
<path d="M2.8271 5.4348L2.90343 5.66371L3.14472 5.66555C3.17597 5.66582 3.1889 5.70562 3.16378 5.72422L2.96968 5.86758L3.04249 6.09762C3.05195 6.12738 3.018 6.15207 2.99257 6.13387L2.79628 5.99355L2.59999 6.13387C2.57456 6.15203 2.5407 6.12738 2.55007 6.09762L2.62288 5.86758L2.42878 5.72422C2.40367 5.70562 2.4166 5.66582 2.44785 5.66555L2.68913 5.66371L2.76546 5.4348C2.77531 5.4052 2.81722 5.4052 2.8271 5.4348Z" fill="#F5F5F5"/>
<path d="M2.8271 6.63405L2.90343 6.86296L3.14472 6.8648C3.17597 6.86507 3.1889 6.90487 3.16378 6.92347L2.96968 7.06683L3.04249 7.29687C3.05195 7.32663 3.018 7.35132 2.99257 7.33312L2.79628 7.1928L2.59999 7.33312C2.57456 7.35128 2.5407 7.32667 2.55007 7.29687L2.62288 7.06683L2.42878 6.92347C2.40367 6.90487 2.4166 6.86507 2.44785 6.8648L2.68913 6.86296L2.76546 6.63405C2.77531 6.6044 2.81722 6.6044 2.8271 6.63405Z" fill="#F5F5F5"/>
<path d="M2.8271 7.82937L2.90343 8.05827L3.14472 8.06011C3.17597 8.06038 3.1889 8.10023 3.16378 8.11878L2.96968 8.26214L3.04249 8.49218C3.05195 8.52195 3.018 8.54663 2.99257 8.52843L2.79628 8.38812L2.59999 8.52843C2.57456 8.5466 2.5407 8.52195 2.55007 8.49218L2.62288 8.26214L2.42878 8.11878C2.40367 8.10027 2.4166 8.06038 2.44785 8.06011L2.68913 8.05827L2.76546 7.82937C2.77531 7.79972 2.81722 7.79972 2.8271 7.82937Z" fill="#F5F5F5"/>
<path d="M2.8271 9.02904L2.90343 9.25795L3.14472 9.25978C3.17597 9.26006 3.1889 9.29986 3.16378 9.31846L2.96968 9.46181L3.04249 9.69185C3.05195 9.72162 3.018 9.74631 2.99257 9.7281L2.79628 9.58779L2.59999 9.7281C2.57456 9.74627 2.5407 9.72162 2.55007 9.69185L2.62288 9.46181L2.42878 9.31846C2.40367 9.29986 2.4166 9.26006 2.44785 9.25978L2.68913 9.25795L2.76546 9.02904C2.77531 8.99943 2.81722 8.99943 2.8271 9.02904Z" fill="#F5F5F5"/>
<path d="M3.75679 4.82445L3.83312 5.05336L4.07441 5.0552C4.10566 5.05547 4.11859 5.09531 4.09347 5.11387L3.89937 5.25723L3.97218 5.48727C3.98164 5.51704 3.94769 5.54172 3.92226 5.52352L3.72597 5.38321L3.52968 5.52352C3.50425 5.54169 3.47039 5.51704 3.47976 5.48727L3.55257 5.25723L3.35847 5.11387C3.33335 5.09528 3.34628 5.05547 3.37753 5.0552L3.61882 5.05336L3.69515 4.82445C3.70496 4.79484 3.74691 4.79484 3.75679 4.82445Z" fill="#F5F5F5"/>
<path d="M3.75679 6.0237L3.83312 6.25261L4.07441 6.25444C4.10566 6.25472 4.11859 6.29456 4.09347 6.31312L3.89937 6.45648L3.97218 6.68651C3.98164 6.71628 3.94769 6.74097 3.92226 6.72276L3.72597 6.58245L3.52968 6.72276C3.50425 6.74093 3.47039 6.71632 3.47976 6.68651L3.55257 6.45648L3.35847 6.31312C3.33335 6.2946 3.34628 6.25472 3.37753 6.25444L3.61882 6.25261L3.69515 6.0237C3.70496 5.99405 3.74691 5.99405 3.75679 6.0237Z" fill="#F5F5F5"/>
<path d="M3.75679 7.21901L3.83312 7.44792L4.07441 7.44976C4.10566 7.45003 4.11859 7.48984 4.09347 7.50843L3.89937 7.65179L3.97218 7.88183C3.98164 7.9116 3.94769 7.93628 3.92226 7.91808L3.72597 7.77777L3.52968 7.91808C3.50425 7.93624 3.47039 7.9116 3.47976 7.88183L3.55257 7.65179L3.35847 7.50843C3.33335 7.48984 3.34628 7.45003 3.37753 7.44976L3.61882 7.44792L3.69515 7.21901C3.70496 7.18937 3.74691 7.18937 3.75679 7.21901Z" fill="#F5F5F5"/>
<path d="M3.75679 8.41869L3.83312 8.6476L4.07441 8.64943C4.10566 8.64971 4.11859 8.68951 4.09347 8.7081L3.89937 8.85146L3.97218 9.0815C3.98164 9.11127 3.94769 9.13595 3.92226 9.11775L3.72597 8.97744L3.52968 9.11775C3.50425 9.13595 3.47039 9.11127 3.47976 9.0815L3.55257 8.85146L3.35847 8.7081C3.33335 8.68951 3.34628 8.64971 3.37753 8.64943L3.61882 8.6476L3.69515 8.41869C3.70496 8.38908 3.74691 8.38908 3.75679 8.41869Z" fill="#F5F5F5"/>
<path d="M4.68603 4.23903L4.76236 4.46793L5.00365 4.46977C5.0349 4.47004 5.04783 4.50989 5.02271 4.52844L4.82861 4.67176L4.90142 4.9018C4.91087 4.93157 4.87693 4.95625 4.8515 4.93805L4.65517 4.79778L4.45888 4.93809C4.43345 4.95629 4.39958 4.93161 4.40896 4.90184L4.48177 4.6718L4.28767 4.52848C4.26255 4.50989 4.27548 4.47004 4.30673 4.46981L4.54802 4.46797L4.62435 4.23907C4.63423 4.20938 4.67615 4.20938 4.68603 4.23903Z" fill="#F5F5F5"/>
<path d="M4.68603 5.4348L4.76236 5.66371L5.00365 5.66555C5.0349 5.66582 5.04783 5.70562 5.02271 5.72422L4.82861 5.86758L4.90142 6.09762C4.91087 6.12738 4.87693 6.15207 4.8515 6.13387L4.65517 5.99355L4.45888 6.13387C4.43345 6.15203 4.39958 6.12738 4.40896 6.09762L4.48177 5.86758L4.28767 5.72422C4.26255 5.70562 4.27548 5.66582 4.30673 5.66555L4.54802 5.66371L4.62435 5.4348C4.63423 5.4052 4.67615 5.4052 4.68603 5.4348Z" fill="#F5F5F5"/>
<path d="M4.68603 6.63406L4.76236 6.86296L5.00365 6.8648C5.0349 6.86507 5.04783 6.90488 5.02271 6.92347L4.82861 7.06683L4.90142 7.29687C4.91087 7.32664 4.87693 7.35132 4.8515 7.33312L4.65517 7.19277L4.45888 7.33308C4.43345 7.35125 4.39958 7.3266 4.40896 7.29683L4.48177 7.06679L4.28767 6.92343C4.26255 6.90484 4.27548 6.86503 4.30673 6.86476L4.54802 6.86292L4.62435 6.63402C4.63423 6.60441 4.67615 6.60441 4.68603 6.63406Z" fill="#F5F5F5"/>
<path d="M4.68603 7.82937L4.76236 8.05827L5.00365 8.06011C5.0349 8.06038 5.04783 8.10023 5.02271 8.11878L4.82861 8.26214L4.90142 8.49218C4.91087 8.52195 4.87693 8.54663 4.8515 8.52843L4.65517 8.38812L4.45888 8.52843C4.43345 8.5466 4.39958 8.52195 4.40896 8.49218L4.48177 8.26214L4.28767 8.11878C4.26255 8.10027 4.27548 8.06038 4.30673 8.06011L4.54802 8.05827L4.62435 7.82937C4.63423 7.79972 4.67615 7.79972 4.68603 7.82937Z" fill="#F5F5F5"/>
<path d="M4.68603 9.02904L4.76236 9.25795L5.00365 9.25978C5.0349 9.26006 5.04783 9.29986 5.02271 9.31846L4.82861 9.46181L4.90142 9.69185C4.91087 9.72162 4.87693 9.74631 4.8515 9.7281L4.65517 9.58779L4.45888 9.7281C4.43345 9.74627 4.39958 9.72162 4.40896 9.69185L4.48177 9.46181L4.28767 9.31846C4.26255 9.29986 4.27548 9.26006 4.30673 9.25978L4.54802 9.25795L4.62435 9.02904C4.63423 8.99943 4.67615 8.99943 4.68603 9.02904Z" fill="#F5F5F5"/>
<path d="M5.61567 4.82445L5.692 5.05336L5.93329 5.0552C5.96454 5.05547 5.97747 5.09531 5.95235 5.11387L5.75825 5.25723L5.83106 5.48727C5.84052 5.51704 5.80657 5.54172 5.78114 5.52352L5.58485 5.38321L5.38857 5.52352C5.36314 5.54169 5.32927 5.51704 5.33865 5.48727L5.41146 5.25723L5.21736 5.11387C5.19224 5.09528 5.20517 5.05547 5.23642 5.0552L5.47771 5.05336L5.55403 4.82445C5.56392 4.79484 5.60579 4.79484 5.61567 4.82445Z" fill="#F5F5F5"/>
<path d="M5.61567 6.0237L5.692 6.25261L5.93329 6.25444C5.96454 6.25472 5.97747 6.29456 5.95235 6.31312L5.75825 6.45648L5.83106 6.68651C5.84052 6.71628 5.80657 6.74097 5.78114 6.72276L5.58485 6.58245L5.38857 6.72276C5.36314 6.74093 5.32927 6.71632 5.33865 6.68651L5.41146 6.45648L5.21736 6.31312C5.19224 6.2946 5.20517 6.25472 5.23642 6.25444L5.47771 6.25261L5.55403 6.0237C5.56392 5.99405 5.60579 5.99405 5.61567 6.0237Z" fill="#F5F5F5"/>
<path d="M5.61567 7.21901L5.692 7.44792L5.93329 7.44976C5.96454 7.45003 5.97747 7.48984 5.95235 7.50843L5.75825 7.65179L5.83106 7.88183C5.84052 7.9116 5.80657 7.93628 5.78114 7.91808L5.58485 7.77777L5.38857 7.91808C5.36314 7.93624 5.32927 7.9116 5.33865 7.88183L5.41146 7.65179L5.21736 7.50843C5.19224 7.48984 5.20517 7.45003 5.23642 7.44976L5.47771 7.44792L5.55403 7.21901C5.56392 7.18937 5.60579 7.18937 5.61567 7.21901Z" fill="#F5F5F5"/>
<path d="M5.61567 8.41869L5.692 8.6476L5.93329 8.64943C5.96454 8.64971 5.97747 8.68951 5.95235 8.7081L5.75825 8.85146L5.83106 9.0815C5.84052 9.11127 5.80657 9.13595 5.78114 9.11775L5.58485 8.97744L5.38857 9.11775C5.36314 9.13595 5.32927 9.11127 5.33865 9.0815L5.41146 8.85146L5.21736 8.7081C5.19224 8.68951 5.20517 8.64971 5.23642 8.64943L5.47771 8.6476L5.55403 8.41869C5.56392 8.38908 5.60579 8.38908 5.61567 8.41869Z" fill="#F5F5F5"/>
<path d="M6.54487 4.23879L6.6212 4.4677L6.86249 4.46953C6.89374 4.46981 6.90667 4.50965 6.88155 4.5282L6.68745 4.67152L6.76026 4.90156C6.76972 4.93133 6.73577 4.95602 6.71034 4.93781L6.51405 4.7975L6.31777 4.93781C6.29234 4.95602 6.25847 4.93133 6.26784 4.90156L6.34066 4.67152L6.14656 4.5282C6.12144 4.50961 6.13437 4.46977 6.16562 4.46953L6.40691 4.4677L6.48323 4.23879C6.49304 4.20914 6.53499 4.20914 6.54487 4.23879Z" fill="#F5F5F5"/>
<path d="M6.54487 5.4348L6.6212 5.66371L6.86249 5.66555C6.89374 5.66582 6.90667 5.70562 6.88155 5.72422L6.68745 5.86758L6.76026 6.09762C6.76972 6.12738 6.73577 6.15207 6.71034 6.13387L6.51405 5.99355L6.31777 6.13387C6.29234 6.15203 6.25847 6.12738 6.26784 6.09762L6.34066 5.86758L6.14656 5.72422C6.12144 5.70562 6.13437 5.66582 6.16562 5.66555L6.40691 5.66371L6.48323 5.4348C6.49304 5.4052 6.53499 5.4052 6.54487 5.4348Z" fill="#F5F5F5"/>
<path d="M6.54487 6.63405L6.6212 6.86296L6.86249 6.8648C6.89374 6.86507 6.90667 6.90487 6.88155 6.92347L6.68745 7.06683L6.76026 7.29687C6.76972 7.32663 6.73577 7.35132 6.71034 7.33312L6.51405 7.1928L6.31777 7.33312C6.29234 7.35128 6.25847 7.32667 6.26784 7.29687L6.34066 7.06683L6.14656 6.92347C6.12144 6.90487 6.13437 6.86507 6.16562 6.8648L6.40691 6.86296L6.48323 6.63405C6.49304 6.6044 6.53499 6.6044 6.54487 6.63405Z" fill="#F5F5F5"/>
<path d="M6.54487 7.82937L6.6212 8.05827L6.86249 8.06011C6.89374 8.06038 6.90667 8.10023 6.88155 8.11878L6.68745 8.26214L6.76026 8.49218C6.76972 8.52195 6.73577 8.54663 6.71034 8.52843L6.51405 8.38812L6.31777 8.52843C6.29234 8.5466 6.25847 8.52195 6.26784 8.49218L6.34066 8.26214L6.14656 8.11878C6.12144 8.10027 6.13437 8.06038 6.16562 8.06011L6.40691 8.05827L6.48323 7.82937C6.49304 7.79972 6.53499 7.79972 6.54487 7.82937Z" fill="#F5F5F5"/>
<path d="M6.54487 9.02904L6.6212 9.25795L6.86249 9.25978C6.89374 9.26006 6.90667 9.29986 6.88155 9.31846L6.68745 9.46181L6.76026 9.69185C6.76972 9.72162 6.73577 9.74631 6.71034 9.7281L6.51405 9.58779L6.31777 9.7281C6.29234 9.74627 6.25847 9.72162 6.26784 9.69185L6.34066 9.46181L6.14656 9.31846C6.12144 9.29986 6.13437 9.26006 6.16562 9.25978L6.40691 9.25795L6.48323 9.02904C6.49304 8.99943 6.53499 8.99943 6.54487 9.02904Z" fill="#F5F5F5"/>
<path d="M7.47456 4.82445L7.55089 5.05336L7.79218 5.0552C7.82343 5.05547 7.83636 5.09531 7.81124 5.11387L7.61714 5.25723L7.68995 5.48727C7.69941 5.51704 7.66546 5.54172 7.64003 5.52352L7.44374 5.38321L7.24745 5.52352C7.22202 5.54169 7.18816 5.51704 7.19753 5.48727L7.27034 5.25723L7.07624 5.11387C7.05113 5.09528 7.06406 5.05547 7.09531 5.0552L7.33659 5.05336L7.41292 4.82445C7.42277 4.79484 7.46468 4.79484 7.47456 4.82445Z" fill="#F5F5F5"/>
<path d="M7.47456 6.0237L7.55089 6.25261L7.79218 6.25444C7.82343 6.25472 7.83636 6.29456 7.81124 6.31312L7.61714 6.45648L7.68995 6.68651C7.69941 6.71628 7.66546 6.74097 7.64003 6.72276L7.44374 6.58245L7.24745 6.72276C7.22202 6.74093 7.18816 6.71632 7.19753 6.68651L7.27034 6.45648L7.07624 6.31312C7.05113 6.2946 7.06406 6.25472 7.09531 6.25444L7.33659 6.25261L7.41292 6.0237C7.42277 5.99405 7.46468 5.99405 7.47456 6.0237Z" fill="#F5F5F5"/>
<path d="M7.47456 7.21901L7.55089 7.44792L7.79218 7.44976C7.82343 7.45003 7.83636 7.48984 7.81124 7.50843L7.61714 7.65179L7.68995 7.88183C7.69941 7.9116 7.66546 7.93628 7.64003 7.91808L7.44374 7.77777L7.24745 7.91808C7.22202 7.93624 7.18816 7.9116 7.19753 7.88183L7.27034 7.65179L7.07624 7.50843C7.05113 7.48984 7.06406 7.45003 7.09531 7.44976L7.33659 7.44792L7.41292 7.21901C7.42277 7.18937 7.46468 7.18937 7.47456 7.21901Z" fill="#F5F5F5"/>
<path d="M7.47456 8.41869L7.55089 8.6476L7.79218 8.64943C7.82343 8.64971 7.83636 8.68951 7.81124 8.7081L7.61714 8.85146L7.68995 9.0815C7.69941 9.11127 7.66546 9.13595 7.64003 9.11775L7.44374 8.97744L7.24745 9.11775C7.22202 9.13595 7.18816 9.11127 7.19753 9.0815L7.27034 8.85146L7.07624 8.7081C7.05113 8.68951 7.06406 8.64971 7.09531 8.64943L7.33659 8.6476L7.41292 8.41869C7.42277 8.38908 7.46468 8.38908 7.47456 8.41869Z" fill="#F5F5F5"/>
<path d="M8.40377 4.23879L8.48009 4.4677L8.72138 4.46953C8.75263 4.46981 8.76556 4.50965 8.74045 4.5282L8.54634 4.67152L8.61916 4.90156C8.62861 4.93133 8.59466 4.95602 8.56923 4.93781L8.37294 4.7975L8.17666 4.93781C8.15123 4.95602 8.11736 4.93133 8.12673 4.90156L8.19955 4.67152L8.00544 4.5282C7.98033 4.50961 7.99326 4.46977 8.02451 4.46953L8.2658 4.4677L8.34212 4.23879C8.35197 4.20914 8.39384 4.20914 8.40377 4.23879Z" fill="#F5F5F5"/>
<path d="M8.40377 5.4348L8.48009 5.66371L8.72138 5.66555C8.75263 5.66582 8.76556 5.70562 8.74045 5.72422L8.54634 5.86758L8.61916 6.09762C8.62861 6.12738 8.59466 6.15207 8.56923 6.13387L8.37294 5.99355L8.17666 6.13387C8.15123 6.15203 8.11736 6.12738 8.12673 6.09762L8.19955 5.86758L8.00544 5.72422C7.98033 5.70562 7.99326 5.66582 8.02451 5.66555L8.2658 5.66371L8.34212 5.4348C8.35197 5.4052 8.39384 5.4052 8.40377 5.4348Z" fill="#F5F5F5"/>
<path d="M8.40377 6.63405L8.48009 6.86296L8.72138 6.8648C8.75263 6.86507 8.76556 6.90487 8.74045 6.92347L8.54634 7.06683L8.61916 7.29687C8.62861 7.32663 8.59466 7.35132 8.56923 7.33312L8.37294 7.1928L8.17666 7.33312C8.15123 7.35128 8.11736 7.32667 8.12673 7.29687L8.19955 7.06683L8.00544 6.92347C7.98033 6.90487 7.99326 6.86507 8.02451 6.8648L8.2658 6.86296L8.34212 6.63405C8.35197 6.6044 8.39384 6.6044 8.40377 6.63405Z" fill="#F5F5F5"/>
<path d="M8.40377 7.82937L8.48009 8.05827L8.72138 8.06011C8.75263 8.06038 8.76556 8.10023 8.74045 8.11878L8.54634 8.26214L8.61916 8.49218C8.62861 8.52195 8.59466 8.54663 8.56923 8.52843L8.37294 8.38812L8.17666 8.52843C8.15123 8.5466 8.11736 8.52195 8.12673 8.49218L8.19955 8.26214L8.00544 8.11878C7.98033 8.10027 7.99326 8.06038 8.02451 8.06011L8.2658 8.05827L8.34212 7.82937C8.35197 7.79972 8.39384 7.79972 8.40377 7.82937Z" fill="#F5F5F5"/>
<path d="M8.40377 9.02904L8.48009 9.25795L8.72138 9.25978C8.75263 9.26006 8.76556 9.29986 8.74045 9.31846L8.54634 9.46181L8.61916 9.69185C8.62861 9.72162 8.59466 9.74631 8.56923 9.7281L8.37294 9.58779L8.17666 9.7281C8.15123 9.74627 8.11736 9.72162 8.12673 9.69185L8.19955 9.46181L8.00544 9.31846C7.98033 9.29986 7.99326 9.26006 8.02451 9.25978L8.2658 9.25795L8.34212 9.02904C8.35197 8.99943 8.39384 8.99943 8.40377 9.02904Z" fill="#F5F5F5"/>
</svg>
