<svg viewBox="0 0 20 20" fill="none" xmlns="http://www.w3.org/2000/svg">
<path fill-rule="evenodd" clip-rule="evenodd" d="M3.23223 5.73233C3.70107 5.26349 4.33696 5.0001 5 5.0001H7.5C7.96024 5.0001 8.33333 5.37319 8.33333 5.83343C8.33333 6.29367 7.96024 6.66676 7.5 6.66676H5C4.77899 6.66676 4.56702 6.75456 4.41074 6.91084C4.25446 7.06712 4.16667 7.27908 4.16667 7.5001V15.0001C4.16667 15.2211 4.25446 15.4331 4.41074 15.5894C4.56702 15.7456 4.77899 15.8334 5 15.8334H12.5C12.721 15.8334 12.933 15.7456 13.0893 15.5894C13.2455 15.4331 13.3333 15.2211 13.3333 15.0001V12.5001C13.3333 12.0399 13.7064 11.6668 14.1667 11.6668C14.6269 11.6668 15 12.0399 15 12.5001V15.0001C15 15.6631 14.7366 16.299 14.2678 16.7679C13.7989 17.2367 13.163 17.5001 12.5 17.5001H5C4.33696 17.5001 3.70107 17.2367 3.23223 16.7679C2.76339 16.299 2.5 15.6631 2.5 15.0001V7.5001C2.5 6.83705 2.76339 6.20117 3.23223 5.73233Z" fill="white" fill-opacity="0.7"/>
<path fill-rule="evenodd" clip-rule="evenodd" d="M13.9941 2.32752C14.4819 1.83972 15.1435 1.56567 15.8333 1.56567C16.5232 1.56567 17.1848 1.83972 17.6726 2.32752C18.1604 2.81532 18.4344 3.47692 18.4344 4.16677C18.4344 4.85663 18.1604 5.51823 17.6726 6.00603L10.5893 13.0894C10.433 13.2456 10.221 13.3334 10 13.3334H7.5C7.03977 13.3334 6.66667 12.9603 6.66667 12.5001V10.0001C6.66667 9.77909 6.75447 9.56713 6.91075 9.41085L13.9941 2.32752ZM15.8333 3.23234C15.5855 3.23234 15.3478 3.33079 15.1726 3.50603L8.33334 10.3453V11.6668H9.65483L16.4941 4.82752C16.6693 4.65228 16.7678 4.4146 16.7678 4.16677C16.7678 3.91895 16.6693 3.68127 16.4941 3.50603C16.3188 3.33079 16.0812 3.23234 15.8333 3.23234Z" fill="white" fill-opacity="0.7"/>
<path fill-rule="evenodd" clip-rule="evenodd" d="M12.7441 3.57754C13.0695 3.2521 13.5972 3.2521 13.9226 3.57754L16.4226 6.07754C16.748 6.40297 16.748 6.93061 16.4226 7.25605C16.0972 7.58149 15.5695 7.58149 15.2441 7.25605L12.7441 4.75605C12.4186 4.43061 12.4186 3.90297 12.7441 3.57754Z" fill="white" fill-opacity="0.7"/>
</svg>
