<svg viewBox="0 0 18 18" fill="none" xmlns="http://www.w3.org/2000/svg">
<path fill-rule="evenodd" clip-rule="evenodd" d="M5.25 3.00002C5.44891 3.00002 5.63968 3.07903 5.78033 3.21969L8.78033 6.21969C9.07322 6.51258 9.07322 6.98745 8.78033 7.28035C8.48743 7.57324 8.01256 7.57324 7.71967 7.28035L6 5.56068V14.25C6 14.6642 5.66421 15 5.25 15C4.83579 15 4.5 14.6642 4.5 14.25V5.56068L2.78033 7.28035C2.48744 7.57324 2.01256 7.57324 1.71967 7.28035C1.42678 6.98745 1.42678 6.51258 1.71967 6.21969L4.71967 3.21969C4.86032 3.07903 5.05109 3.00002 5.25 3.00002Z" fill="white"/>
<path fill-rule="evenodd" clip-rule="evenodd" d="M12.75 3.00002C13.1642 3.00002 13.5 3.3358 13.5 3.75002V12.4394L15.2197 10.7197C15.5125 10.4268 15.9874 10.4268 16.2803 10.7197C16.5732 11.0126 16.5732 11.4875 16.2803 11.7803L13.2803 14.7803C13.1397 14.921 12.9489 15 12.75 15C12.5511 15 12.3603 14.921 12.2197 14.7803L9.21966 11.7803C8.92676 11.4875 8.92676 11.0126 9.21966 10.7197C9.51255 10.4268 9.98742 10.4268 10.2803 10.7197L12 12.4394V3.75002C12 3.3358 12.3358 3.00002 12.75 3.00002Z" fill="white"/>
</svg>
